<?xml version="1.0" encoding="UTF-8" standalone="no"?>
<!DOCTYPE svg PUBLIC "-//W3C//DTD SVG 1.1//EN" "http://www.w3.org/Graphics/SVG/1.1/DTD/svg11.dtd">
<svg width="100%" height="100%" viewBox="0 0 1000 1000" version="1.1" xmlns="http://www.w3.org/2000/svg" xmlns:xlink="http://www.w3.org/1999/xlink" xml:space="preserve" style="fill-rule:evenodd;clip-rule:evenodd;stroke-linejoin:round;stroke-miterlimit:1.41421;">
    <g transform="matrix(10.9339,0,0,10.9339,-1938.56,-982.488)">
        <g transform="matrix(0.241093,0,0,0.241093,125.039,14.9067)">
            <g transform="matrix(2.48612,0,0,2.54098,-801.132,-528.084)">
                <path d="M463.114,335.404L494.865,335.309L458.46,474.33L427.509,474.309L463.114,335.404Z" style="fill:rgb(39,39,39);"/>
            </g>
            <g transform="matrix(2.1826,0,0,2.51206,-497.174,-820.66)">
                <path d="M432.75,474.33L420.193,474.33L420.193,455.676L433.436,455.676L432.75,474.33Z" style="fill:rgb(39,39,39);"/>
            </g>
            <g transform="matrix(-2.48612,8.32143e-16,-8.12746e-16,-2.54546,1491.88,1530.33)">
                <path d="M427.773,473.324C425.686,473.631 423.55,473.791 421.377,473.791C401.838,473.791 385.325,460.914 380.1,443.306L435.634,443.274L427.773,473.324Z" style="fill:rgb(39,39,39);"/>
            </g>
            <g transform="matrix(-2.48612,8.32143e-16,-8.12746e-16,-2.54546,1491.85,1529.5)">
                <path d="M427.896,411.309L412.89,411.309L408.482,428.513C407.584,432.019 408.376,435.745 410.623,438.582C412.816,441.351 416.149,442.964 419.671,442.974M378.79,423.261L389.727,380.828L435.815,380.828L419.584,443.309L380.092,443.279C378.975,439.508 378.377,435.52 378.377,431.395C378.377,428.712 378.526,425.986 378.79,423.261Z" style="fill:rgb(39,39,39);"/>
            </g>
        </g>
        <g transform="matrix(0.241093,0,0,0.241093,125.039,14.9067)">
            <g transform="matrix(2.48612,0,0,2.54098,-801.132,-528.084)">
                <path d="M463.114,335.404L494.865,335.309L458.46,474.33L427.509,474.309L463.114,335.404Z" style="fill:rgb(39,39,39);"/>
            </g>
            <g transform="matrix(2.1826,0,0,2.51206,-497.174,-820.66)">
                <path d="M432.75,474.33L420.193,474.33L420.193,455.676L433.436,455.676L432.75,474.33Z" style="fill:rgb(39,39,39);"/>
            </g>
            <g transform="matrix(-2.48612,8.32143e-16,-8.12746e-16,-2.54546,1491.88,1530.33)">
                <path d="M427.773,473.324C425.686,473.631 423.55,473.791 421.377,473.791C401.838,473.791 385.325,460.914 380.1,443.306L435.634,443.274L427.773,473.324Z" style="fill:rgb(39,39,39);"/>
            </g>
            <g transform="matrix(-2.48612,8.32143e-16,-8.12746e-16,-2.54546,1491.85,1529.5)">
                <path d="M427.896,411.309L412.89,411.309L408.482,428.513C407.584,432.019 408.376,435.745 410.623,438.582C412.816,441.351 416.149,442.964 419.671,442.974M378.79,423.261L389.727,380.828L435.815,380.828L419.584,443.309L380.092,443.279C378.975,439.508 378.377,435.52 378.377,431.395C378.377,428.712 378.526,425.986 378.79,423.261Z" style="fill:rgb(39,39,39);"/>
            </g>
        </g>
    </g>
</svg>
